<svg xmlns="http://www.w3.org/2000/svg" viewBox="0 0 1000 154.38"><defs><style>.cls-1{fill:#fff;}.cls-2{fill:#991b1e;}</style></defs><title>Black_LogoType</title><g id="Layer_4" data-name="Layer 4"><path d="M1000,124.07a5,5,0,1,1-5-4.85A4.87,4.87,0,0,1,1000,124.07Zm-8.72,0a3.76,3.76,0,0,0,3.78,3.87,3.72,3.72,0,0,0,3.7-3.84,3.74,3.74,0,1,0-7.48,0Zm3,2.54h-1.12v-4.85a9.76,9.76,0,0,1,1.86-.15,3,3,0,0,1,1.69.36,1.32,1.32,0,0,1,.47,1.06,1.25,1.25,0,0,1-1,1.13v0a1.43,1.43,0,0,1,.88,1.19,3.76,3.76,0,0,0,.36,1.21h-1.21a4.14,4.14,0,0,1-.39-1.18c-.09-.54-.38-.77-1-.77h-.54Zm0-2.75h.54c.62,0,1.12-.21,1.12-.71s-.33-.74-1-.74a2.73,2.73,0,0,0-.63.06Z" transform="translate(0 -0.49)"/><g id="g4415"><path id="path4417" d="M1.16,112.67H63.54c7.51,0,10.4,0,14.44-1.16A19.15,19.15,0,0,0,92.42,95.32,136.42,136.42,0,0,0,93.57,78,78.68,78.68,0,0,0,93,66.41c-.58-8.67-2.31-13.3-6.36-16.77C82,45,75.09,43.28,60.07,43.28H0v69.39ZM22,96.48V60.63H57.76C69.89,60.63,72.2,63.52,72.2,78c0,12.14-1.15,15.61-6.35,17.34-2.31.58-2.89.58-8.67.58H22Z" transform="translate(0 -0.49)"/><path id="path4419" d="M110.33,112.67h20.79V95.32h32.35c5.77,0,7.51,0,9.24,1.16S175.6,100,175.6,104v8.68H197v-11c0-5.78-.58-9.25-2.89-11.56s-4.62-3.47-12.13-3.47h-3.47c9.25-1.16,12.71-2.31,15-4.63,2.89-3.47,4.62-8.09,4.62-15.61,0-11-2.88-17.34-8.66-20.23-4-1.74-8.67-2.32-18.48-2.32h-59.5v68.81ZM131.7,78.55V60.63h33.5c6.35,0,8.09.58,9.82,1.73,1.15,1.74,1.73,3.47,1.73,7.52,0,6.94-1.73,8.1-12.13,8.1H131.7Z" transform="translate(0 -0.49)"/><path id="path4421" d="M209.1,112.67h23.68l6.93-12.14h44.48l6.93,12.14h23.1L276.1,43.28H248.38L209.1,112.67Zm38.12-26.6,15-27.75,15,27.75Z" transform="translate(0 -0.49)"/><path id="path4423" d="M412.42,67c0-14.45-3.47-20.24-13.86-22.55-4.62-1.16-10.4-1.16-29.46-1.16a240,240,0,0,0-26.57,1.16c-8.67,1.16-13.87,4.05-16.75,9.25-2.89,4.63-3.47,11-3.47,25.44,0,12.72.58,17.93,2.89,22.55,2.31,5.78,6.93,8.67,14.44,10.41,4.62,1.16,10.4,1.16,26.57,1.16,20.22,0,26.57,0,28.88-.58,8.67-1.16,13.86-4,16.17-10.41,1.16-3.47,1.74-8.09,1.74-19.08V73.35H365.63V86.07H392.2v4.05c-.57,3.47-2.31,5.2-6.35,6.36-2.31.58-2.31.58-13.29.58-17.9,0-18.48,0-21.37-1.16-5.2-1.73-6.93-5.2-6.93-16.77,0-4.62,0-11,.58-12.72.58-4.62,2.89-6.94,7.51-7.51,1.73,0,10.39-.58,19.06-.58h12.71c6.35,0,8.66,2.31,8.66,7.51h19.64Z" transform="translate(0 -0.49)"/><path id="path4425" d="M473.65,42.71c-18.49,0-24.84.57-30.62,2.31C435,47.33,430.9,51.38,429.17,58.9c-1.15,4.62-1.73,7.51-1.73,19.08,0,15,.58,20.23,3.46,25.44s6.93,8.09,15,9.25c4,.58,12.71,1.15,28.88,1.15,6.93,0,16.18,0,19.64-.57,9.82-.58,16.17-2.32,20.22-5.79,5.77-4.62,7.51-11.56,7.51-28.33,0-8.67,0-13.87-.58-16.76-1.73-11-6.93-16.77-17.33-18.51-4.62-1.15-10.4-1.15-30.61-1.15Zm1.73,16.76c26,0,26.57,0,26.57,17.93,0,9.25-.58,12.72-2.31,15-2.31,3.47-6.35,4-24.26,4-16.17,0-19.06-.58-21.95-2.89C451.12,91.27,450,87.81,450,77.4c0-9.83.58-13.3,3.47-15.61,2.31-1.74,6.35-2.32,21.95-2.32Z" transform="translate(0 -0.49)"/></g><g id="g4427"><path id="path4429" d="M932.42,68.73c0-5.21,1.15-6.94,4-8.68,2.89-1.15,5.2-1.15,20.8-1.15,20.21,0,22,1.15,22,17.92,0,11-.58,13.88-2.89,16.19-2.89,2.31-5.78,2.89-23.11,2.89-18.48,0-19.64-.58-20.21-8.09H912.78v2.31c0,10.41,2.31,16.19,8.09,19.08s11.55,3.47,37.54,3.47c19.64,0,26-1.16,32.35-4.63,7.51-4.05,9.24-11,9.24-28.91,0-20.81-1.73-27.75-8.66-32.38-5.78-3.47-12.13-4.62-31.77-4.62-13.87,0-22,0-26.57.58-11,.57-16.18,3.47-19.07,9.25-1.73,2.89-1.73,6.36-1.73,16.76Z" transform="translate(0 -0.49)"/><path id="path4431" d="M896,42.71H874.66V69.3H826.71V42.71H805.34v69.38h21.37V86.65h47.95v25.44H896Z" transform="translate(0 -0.49)"/><path id="path4433" d="M793.79,42.71H770.11l-6.93,12.14H718.7l-6.93-12.14H688.66l38.13,69.38h28.3l38.7-69.38ZM755.67,69.88l-15,27.75-15-27.75Z" transform="translate(0 -0.49)"/><path id="path4435" d="M678.84,42.71H657.47v69.38h21.37Z" transform="translate(0 -0.49)"/></g><polygon points="541.57 34.7 541.57 111.76 561.79 111.76 561.21 59.35 541.57 34.7"/><polygon class="cls-1" points="636.88 42.48 616.66 42.48 617.24 95.09 636.79 119.66 636.88 42.48"/><polygon points="636.97 42.48 616.75 42.48 617.33 95.09 636.87 119.66 636.97 42.48"/><path id="path4413" class="cls-2" d="M541.57,35.18V.49l95.31,119.69v34.69Z" transform="translate(0 -0.49)"/></g></svg>